Coordinates
version=1
nRows=8
nColumns=40
inDegrees=yes

Units are S.I. units (second, meters, Newtons, ...)
If the header above contains a line with 'inDegrees', this indicates whether rotational values are in degrees (yes) or radians (no).

endheader
time	pelvis_tilt	pelvis_list	pelvis_rotation	pelvis_tx	pelvis_ty	pelvis_tz	hip_flexion_r	hip_adduction_r	hip_rotation_r	knee_angle_r	knee_angle_r_beta	ankle_angle_r	subtalar_angle_r	mtp_angle_r	hip_flexion_l	hip_adduction_l	hip_rotation_l	knee_angle_l	knee_angle_l_beta	ankle_angle_l	subtalar_angle_l	mtp_angle_l	lumbar_extension	lumbar_bending	lumbar_rotation	arm_flex_r	arm_add_r	arm_rot_r	elbow_flex_r	pro_sup_r	wrist_flex_r	wrist_dev_r	arm_flex_l	arm_add_l	arm_rot_l	elbow_flex_l	pro_sup_l	wrist_flex_l	wrist_dev_l
      8.65000000	     88.92080723	     89.89537876	     88.94439976	      0.28680213	      0.62175312	      0.87812506	     15.54181347	     -8.86233249	     -7.66773080	     17.77972952	      0.31031482	      8.42790757	      0.00000000	      0.00000000	     13.38312043	    -13.91706178	     -9.85885524	     16.47721220	      0.28758160	      5.33595746	      0.00000000	      0.00000000	     -9.81864385	    -12.11399113	      0.44575029	     18.80757081	      5.04433697	     -1.49299198	      9.92452126	     34.56674894	      0.00000000	      0.00000000	    -89.91244270	   -119.82953677	    -23.17147877	     96.94368178	     17.02597419	      0.00000000	      0.00000000
      8.65500000	     88.92857065	     89.89430132	     88.95671982	      0.28670046	      0.62167901	      0.87809604	     15.54120392	     -8.86630731	     -7.63236354	     17.80271401	      0.31071598	      8.43620715	      0.00000000	      0.00000000	     13.38456106	    -13.90949279	     -9.84348434	     16.48551244	      0.28772647	      5.34210847	      0.00000000	      0.00000000	     -9.77144364	    -12.11081338	      0.42699401	     18.79741097	      5.06594571	     -1.49288678	      9.91556043	     34.56166981	      0.00000000	      0.00000000	    -89.91295280	   -119.82756422	    -23.15798211	     97.00034747	     17.03017742	      0.00000000	      0.00000000
      8.66000000	     88.92029921	     89.89505061	     88.94950201	      0.28671911	      0.62166862	      0.87808909	     15.55776835	     -8.87677407	     -7.63661343	     17.82510576	      0.31110678	      8.44717618	      0.00000000	      0.00000000	     13.38331300	    -13.91420055	     -9.83770667	     16.49034430	      0.28781080	      5.35460113	      0.00000000	      0.00000000	     -9.77111896	    -12.10195113	      0.43394975	     18.79343685	      5.06837688	     -1.49439404	      9.90589685	     34.55490978	      0.00000000	      0.00000000	    -89.91260873	   -119.82807096	    -23.12752729	     97.02294805	     17.03198592	      0.00000000	      0.00000000
      8.66500000	     88.92337997	     89.89480617	     88.95505385	      0.28660231	      0.62162651	      0.87807347	     15.56051742	     -8.88050886	     -7.62703423	     17.85189536	      0.31157435	      8.45595198	      0.00000000	      0.00000000	     13.38086084	    -13.91315378	     -9.82711116	     16.49917780	      0.28796498	      5.36848508	      0.00000000	      0.00000000	     -9.71917016	    -12.10118761	      0.43249733	     18.78709450	      5.07098625	     -1.49657728	      9.89813017	     34.54941688	      0.00000000	      0.00000000	    -89.91304110	   -119.82700093	    -23.10883480	     97.04989430	     17.03404914	      0.00000000	      0.00000000
      8.67000000	     88.94065491	     89.89586648	     88.95741228	      0.28644099	      0.62152556	      0.87796820	     15.58120519	     -8.90162683	     -7.66890674	     17.92826557	      0.31290726	      8.56843289	      0.00000000	      0.00000000	     13.39841946	    -13.91282424	     -9.83324653	     16.55511759	      0.28894131	      5.45789017	      0.00000000	      0.00000000	     -9.68470291	    -12.08754210	      0.44628254	     18.76774936	      5.01385051	     -1.52174786	      9.86114529	     34.51025447	      0.00000000	      0.00000000	    -89.91299752	   -119.82974778	    -23.08789019	     96.99399077	     17.03216534	      0.00000000	      0.00000000
      8.67500000	     88.94904398	     89.89452938	     88.97272962	      0.28631235	      0.62146790	      0.87793772	     15.57760246	     -8.90547581	     -7.63931264	     17.95458942	      0.31336670	      8.57348155	      0.00000000	      0.00000000	     13.40763281	    -13.91357085	     -9.81772359	     16.57210922	      0.28923787	      5.46212207	      0.00000000	      0.00000000	     -9.62305335	    -12.08530946	      0.43369228	     18.75258992	      5.03849921	     -1.52383717	      9.85491514	     34.50533102	      0.00000000	      0.00000000	    -89.91341828	   -119.82794878	    -23.06904211	     97.06209479	     17.03702413	      0.00000000	      0.00000000
      8.68000000	     88.95959155	     89.89405263	     88.98736955	      0.28625214	      0.62132638	      0.87790716	     15.58076501	     -8.92060884	     -7.61873492	     17.97886534	      0.31379040	      8.58187927	      0.00000000	      0.00000000	     13.42592141	    -13.90725796	     -9.82408531	     16.59363113	      0.28961350	      5.46883401	      0.00000000	      0.00000000	     -9.58962792	    -12.07459579	      0.41605163	     18.73699633	      5.04064678	     -1.52842208	      9.84663544	     34.49985795	      0.00000000	      0.00000000	    -89.91338581	   -119.82840330	    -23.04525994	     97.10733762	     17.04021466	      0.00000000	      0.00000000
      8.68500000	     88.95915677	     89.89426162	     88.98971591	      0.28614649	      0.62129555	      0.87789017	     15.58558591	     -8.92773601	     -7.61618738	     18.00262010	      0.31420499	      8.59099282	      0.00000000	      0.00000000	     13.43024361	    -13.90937904	     -9.82195303	     16.62005660	      0.29007471	      5.47647385	      0.00000000	      0.00000000	     -9.55058088	    -12.07349867	      0.40718438	     18.72538880	      5.04318231	     -1.53278705	      9.84081127	     34.49479316	      0.00000000	      0.00000000	    -89.91361480	   -119.82766926	    -23.02085269	     97.14476018	     17.04282189	      0.00000000	      0.00000000
